<?xml version="1.0" encoding="iso-8859-1"?>
<!-- Uploaded to: SVG Repo, www.svgrepo.com, Generator: SVG Repo Mixer Tools -->
<!DOCTYPE svg PUBLIC "-//W3C//DTD SVG 1.1//EN" "http://www.w3.org/Graphics/SVG/1.1/DTD/svg11.dtd">
<svg fill="#000000" version="1.1" id="Capa_1" xmlns="http://www.w3.org/2000/svg" xmlns:xlink="http://www.w3.org/1999/xlink" 
	 width="800px" height="800px" viewBox="0 0 31.96 31.96" xml:space="preserve"
	>
<g>
	<g>
		<path d="M6.745,6.382H5.984c-0.422,0-0.764,0.342-0.764,0.763h1.499H8.12h1.582c0-0.421-0.342-0.763-0.764-0.763H8.081V5.715
			h2.369c0.587,0,1.063-0.476,1.063-1.063V1.436c0-0.587-0.476-1.063-1.063-1.063H4.375c-0.587,0-1.063,0.476-1.063,1.063v3.216
			c0,0.587,0.476,1.063,1.063,1.063h2.37V6.382z"/>
		<path d="M16.969,6.382h-0.763c-0.421,0-0.763,0.342-0.763,0.763h1.5h1.4h1.582c0-0.421-0.342-0.763-0.765-0.763h-0.856V5.715
			h2.369c0.587,0,1.062-0.476,1.062-1.063V1.436c0-0.587-0.476-1.063-1.062-1.063h-6.075c-0.587,0-1.063,0.476-1.063,1.063v3.216
			c0,0.587,0.476,1.063,1.063,1.063h2.37L16.969,6.382L16.969,6.382z"/>
		<path d="M27.193,6.382h-0.763c-0.422,0-0.764,0.342-0.764,0.763h1.499h1.4h1.582c0-0.421-0.343-0.763-0.765-0.763h-0.856V5.715
			h2.369c0.586,0,1.062-0.476,1.062-1.063V1.436c0-0.587-0.477-1.063-1.062-1.063H24.82c-0.586,0-1.062,0.476-1.062,1.063v3.216
			c0,0.587,0.478,1.063,1.062,1.063h2.371v0.667H27.193z"/>
		<path d="M10.648,8.643c-0.087,0.263,0.058,0.547,0.32,0.633l11.299,3.705c0.003,0,0.005,0,0.005,0
			c0.022,0.008,0.049,0.014,0.072,0.018h0.002c0.023,0.004,0.053,0.006,0.078,0.006c0.021,0,0.04-0.001,0.062-0.003
			c0.004,0,0.01-0.002,0.017-0.003c0.014-0.002,0.028-0.004,0.042-0.008c0.006-0.001,0.012-0.003,0.018-0.005
			c0.014-0.004,0.026-0.008,0.039-0.012c0.006-0.002,0.012-0.005,0.016-0.007c0.016-0.005,0.027-0.011,0.041-0.017
			c0.004-0.003,0.012-0.006,0.017-0.01c0.013-0.007,0.022-0.014,0.035-0.021c0.006-0.004,0.012-0.009,0.019-0.013
			c0.01-0.008,0.021-0.015,0.029-0.024c0.006-0.005,0.014-0.012,0.02-0.018c0.008-0.008,0.018-0.016,0.023-0.024
			c0.007-0.007,0.014-0.015,0.02-0.023c0.006-0.007,0.012-0.012,0.017-0.019l2.655-3.705c0.164-0.226,0.109-0.539-0.114-0.7
			c-0.224-0.163-0.537-0.111-0.7,0.115l-2.281,3.183l-2.729-3.215c-0.18-0.211-0.495-0.236-0.707-0.058
			c-0.213,0.179-0.237,0.496-0.059,0.708l1.992,2.35l-9.609-3.151C11.02,8.236,10.734,8.38,10.648,8.643z"/>
		<circle cx="8.528" cy="14.934" r="4.409"/>
		<path d="M22.57,23.79c-0.653-0.735-1.779-0.804-2.52-0.147l-3.506,3.113l-4.373-5.375l-3.646,4.754L4.83,21.051
			C3.072,22.262,0.661,25.092,0,31.587h3.562c0.105-1,0.271-1.903,0.558-2.668v2.668h8.923v-3.541l1.935,2.408
			c0.308,0.379,0.743,0.614,1.229,0.653c0.049,0.005,0.091,0.007,0.139,0.007c0.434,0,0.854-0.16,1.184-0.451l4.896-4.354
			C23.162,25.658,23.229,24.529,22.57,23.79z"/>
		<path d="M10.692,19.822l-1.045,0.439c-0.215-0.371-0.61-0.619-1.067-0.619c-0.453,0-0.847,0.246-1.063,0.608L6.47,19.803
			c-0.152-0.064-0.337-0.05-0.477,0.043c-0.139,0.092-0.232,0.246-0.232,0.412v1.303c0,0.158,0.084,0.305,0.211,0.397
			c0.126,0.095,0.294,0.121,0.442,0.076c0.411-0.125,0.922-0.281,1.212-0.369c0.227,0.272,0.567,0.453,0.951,0.453
			c0.372,0,0.703-0.168,0.931-0.429c0.295,0.091,0.815,0.246,1.232,0.371c0.149,0.045,0.323,0.019,0.449-0.076
			c0.125-0.094,0.211-0.239,0.211-0.396v-1.311c0-0.166-0.095-0.32-0.232-0.412C11.03,19.771,10.843,19.756,10.692,19.822z"/>
		<polygon points="17.611,24.38 15.992,24.38 16.672,25.212 		"/>
		<path d="M30.785,25.878c0.647,0,1.175-0.524,1.175-1.172V14.63c0-0.648-0.524-1.173-1.175-1.173H13.804
			c0.132,0.47,0.205,0.964,0.205,1.476c0,1.15-0.358,2.217-0.966,3.102v2.717l1.499,1.844v-7.639h15.919v9.422h-6.434
			c0.209,0.975-0.099,2.029-0.894,2.734l-2.226,1.979h3.22h3.548v-0.48c0-0.641-0.52-1.161-1.161-1.161h-2.407v-0.613
			c0-0.528,0.428-0.957,0.955-0.957h5.723V25.878z"/>
	</g>
</g>
</svg>