<?xml version="1.0" encoding="iso-8859-1"?>
<!-- Uploaded to: SVG Repo, www.svgrepo.com, Generator: SVG Repo Mixer Tools -->
<!DOCTYPE svg PUBLIC "-//W3C//DTD SVG 1.1//EN" "http://www.w3.org/Graphics/SVG/1.1/DTD/svg11.dtd">
<svg fill="#000000" version="1.1" id="Capa_1" xmlns="http://www.w3.org/2000/svg" xmlns:xlink="http://www.w3.org/1999/xlink" 
	 width="800px" height="800px" viewBox="0 0 31.81 31.811"
	 xml:space="preserve">
<g>
	<g>
		<path d="M6.713,6.571c1.815,0,3.285-1.471,3.285-3.285C9.998,1.469,8.528,0,6.713,0C4.897,0,3.427,1.469,3.427,3.286
			C3.427,5.1,4.897,6.571,6.713,6.571z"/>
		<path d="M17.071,11.763c0.549-0.486,0.597-1.328,0.107-1.879c-0.487-0.549-1.329-0.598-1.878-0.11l-2.612,2.32L9.43,8.089
			l-2.717,3.544L3.959,7.835c-1.541,1.059-3.754,3.784-3.735,10.609c0.002,0.735,0.599,1.348,1.332,1.348h0.002
			c0.736,0,1.354-0.618,1.353-1.354c-0.006-1.989,0.065-3.543,0.523-4.73v4.298c0,0.619,0.196,1.196,0.391,1.693v10.782
			c0,0.737,0.639,1.329,1.372,1.329c0.736,0,1.372-0.592,1.372-1.329v-9.159c0,0.005,0.127,0.011,0.198,0.011
			c0.067,0,0.194-0.006,0.194-0.011v9.159c0,0.737,0.637,1.329,1.371,1.329c0.735,0,1.373-0.592,1.373-1.329V19.699
			c0.195-0.495,0.391-1.074,0.391-1.693v-4.95l1.432,1.796c0.229,0.283,0.551,0.459,0.913,0.486
			c0.035,0.004,0.064,0.006,0.099,0.006c0.324,0,0.638-0.117,0.881-0.338L17.071,11.763z"/>
		<path d="M8.324,6.927l-0.779,0.33c-0.16-0.278-0.452-0.463-0.793-0.463c-0.34,0-0.631,0.183-0.793,0.453l-0.78-0.332
			c-0.113-0.049-0.24-0.037-0.342,0.03c-0.105,0.069-0.162,0.183-0.162,0.31v0.969c0,0.117,0.051,0.228,0.145,0.296
			c0.095,0.068,0.213,0.092,0.325,0.056c0.307-0.093,0.683-0.208,0.9-0.272c0.169,0.202,0.42,0.333,0.707,0.333
			c0.276,0,0.523-0.125,0.692-0.318c0.22,0.068,0.607,0.184,0.918,0.278c0.11,0.032,0.241,0.012,0.334-0.058
			c0.096-0.07,0.159-0.18,0.159-0.297V7.266c0-0.124-0.072-0.238-0.175-0.308C8.577,6.89,8.438,6.879,8.324,6.927z"/>
		<path d="M15.007,0.067c-1.053,0-1.906,0.854-1.906,1.906v8.881l1.766-1.568c0.361-0.32,0.824-0.497,1.304-0.5V3.137h12.28v25.604
			h-12.28V13.437l-2.316,2.059c-0.217,0.197-0.476,0.339-0.753,0.422v13.988c0,1.053,0.854,1.905,1.906,1.905H29.68
			c1.054,0,1.906-0.854,1.906-1.905V1.973c0-1.053-0.854-1.906-1.906-1.906H15.007z"/>
		<path d="M17.216,27.502h10.189v-6.729H17.216V27.502z M18.196,21.818h8.229v4.638h-8.229V21.818z"/>
		<rect x="24.466" y="22.602" width="0.979" height="3.07"/>
		<rect x="22.833" y="22.602" width="1.045" height="3.07"/>
		<path d="M20.241,22.458c-0.905,0-1.646,0.738-1.646,1.646c0,0.905,0.738,1.644,1.646,1.644s1.646-0.738,1.646-1.644
			C21.884,23.196,21.147,22.458,20.241,22.458z M20.241,24.723c-0.342,0-0.62-0.278-0.62-0.619c0-0.342,0.278-0.62,0.62-0.62
			c0.341,0,0.619,0.278,0.619,0.62C20.86,24.444,20.582,24.723,20.241,24.723z"/>
		<path d="M27.406,12.607H17.216v6.729h10.189V12.607z M26.425,18.291h-8.229v-4.704h8.229L26.425,18.291L26.425,18.291z"/>
		<rect x="24.466" y="14.372" width="0.979" height="3.069"/>
		<rect x="22.833" y="14.372" width="1.045" height="3.069"/>
		<path d="M20.241,17.547c0.906,0,1.646-0.735,1.646-1.645c0-0.906-0.737-1.645-1.646-1.645s-1.646,0.738-1.646,1.645
			C18.594,16.809,19.335,17.547,20.241,17.547z M20.241,15.283c0.341,0,0.619,0.278,0.619,0.619c0,0.342-0.278,0.619-0.619,0.619
			c-0.342,0-0.62-0.277-0.62-0.619C19.621,15.562,19.899,15.283,20.241,15.283z"/>
		<path d="M27.406,4.378H17.216v4.696c0.166,0.103,0.318,0.227,0.451,0.375c0.416,0.471,0.57,1.084,0.473,1.656h9.266V4.378z
			 M26.425,10.062h-8.229V5.425h8.229L26.425,10.062L26.425,10.062z"/>
		<rect x="24.466" y="6.206" width="0.979" height="3.071"/>
		<rect x="22.833" y="6.206" width="1.045" height="3.071"/>
		<path d="M20.241,9.347c0.906,0,1.646-0.738,1.646-1.646c0-0.906-0.737-1.645-1.646-1.645s-1.646,0.74-1.646,1.646
			C18.594,8.609,19.335,9.347,20.241,9.347z M20.241,7.082c0.341,0,0.619,0.279,0.619,0.62c0,0.342-0.278,0.62-0.619,0.62
			c-0.342,0-0.62-0.278-0.62-0.62C19.621,7.361,19.899,7.082,20.241,7.082z"/>
	</g>
</g>
</svg>